<?xml version="1.0" encoding="utf-8"?>
<!-- Generator: Adobe Illustrator 16.0.0, SVG Export Plug-In . SVG Version: 6.00 Build 0)  -->
<!DOCTYPE svg PUBLIC "-//W3C//DTD SVG 1.1//EN" "http://www.w3.org/Graphics/SVG/1.1/DTD/svg11.dtd">
<svg version="1.1" id="Layer_1" xmlns="http://www.w3.org/2000/svg" xmlns:xlink="http://www.w3.org/1999/xlink" x="0px" y="0px"
	 width="200px" height="90px" viewBox="0 0 200 90" enable-background="new 0 0 200 90" xml:space="preserve">
<g>
	<g>
		<g>
			<path fill="#214797" d="M112.624,30.726l0.063,0.036l11.067,6.282c1.146,0.649,2.604,0.247,3.257-0.898l11.645-20.519
				c0.648-1.144,0.246-2.603-0.898-3.252l-11.068-6.282l-0.062-0.036l-3.029-1.721c-1.146-0.649-2.604-0.247-3.255,0.897
				l-11.646,20.519c-0.647,1.145-0.245,2.604,0.896,3.254L112.624,30.726z"/>
			<path fill="#FFFFFF" d="M124.043,36.541c0.867,0.492,1.973,0.187,2.465-0.68l11.645-20.519c0.492-0.866,0.188-1.971-0.68-2.463
				L123.307,4.84c-0.865-0.492-1.972-0.187-2.463,0.679l-11.645,20.519c-0.492,0.867-0.188,1.972,0.679,2.464L124.043,36.541z"/>
			<path fill="#214797" d="M124.293,36.102c0.626,0.355,1.42,0.136,1.775-0.491l11.646-20.519c0.354-0.625,0.136-1.42-0.491-1.775
				l-9.383-5.325l-12.931,22.784L124.293,36.102z M128.604,19.819l1.681-2.958l0.911,0.518l-1.68,2.958L128.604,19.819z
				 M126.245,23.972l1.679-2.958l0.913,0.518l-1.679,2.958L126.245,23.972z M123.889,28.125l1.678-2.958l0.914,0.518l-1.68,2.958
				L123.889,28.125z M121.531,32.279l1.679-2.958l0.912,0.518l-1.679,2.958L121.531,32.279z M123.168,33.208l6.445-11.359
				l0.912,0.518l-6.445,11.36L123.168,33.208z M121.283,5.768l-11.646,20.519c-0.354,0.626-0.136,1.422,0.489,1.777l2.153,1.222
				L125.21,6.5l-2.151-1.221C122.434,4.924,121.639,5.143,121.283,5.768z"/>
			
				<rect x="106.954" y="17.127" transform="matrix(-0.4935 0.8697 -0.8697 -0.4935 195.5103 -76.576)" fill="#FFFFFF" width="26.195" height="3.023"/>
		</g>
		<path fill="#E7E7E7" d="M113.412,17.213l0.145-0.046l3.254-5.732l-0.435-0.156c-0.231-0.083-2.362-0.299-4.872-0.04
			c-2.734,0.281-5.357,0.806-6.234,1.248c-0.854,0.431-2.037,1.447-2.562,2.09c-2.226,2.721-6.036,8.321-6.261,8.652
			c-0.336,0.411-0.542,0.905-0.597,1.431l-1.522,14.47l-0.001,0.01c-0.001,0.022-0.128,2.32-0.715,3.801
			c-0.58,1.462-2.092,3.475-2.161,3.568l-4.395,5.521l14.124,8.018l3.744-9.936c0-0.002,0.062-0.184,0.178-0.492
			c0.25-0.701,2.281-2.889,4.075-4.813c1.912-2.054,3.892-4.178,4.531-5.311c0.694-1.225,1.446-2.786,2.244-4.439
			c0.306-0.632,0.621-1.286,0.938-1.934c0.824-1.688,1.467-2.908,2.077-3.956c0.951-1.632,1.483-3.042,1.912-4.175
			c0.125-0.33,0.242-0.641,0.354-0.919c0.783-1.41-0.07-2.865-1.328-3.578c-0.201-0.115-0.408-0.207-0.614-0.273
			c-1.396-0.45-3.271,0.639-4.772,2.774c-0.562,0.8-0.912,1.589-1.28,2.424c-0.546,1.23-1.108,2.503-2.449,3.93
			c-0.042,0.046-0.09,0.092-0.131,0.13c-0.958,0.899-2.673,1.432-2.875,1.456c-0.187,0.014-0.394-0.042-0.611-0.167
			c-0.723-0.41-1.563-1.549-2.254-3.046c-0.563-1.229-0.938-2.539-0.916-3.197c1.457-1.788,3.431-4.74,4.449-6.335
			C109.975,17.938,112.855,17.391,113.412,17.213z"/>
		<path fill="#214797" d="M113.294,16.843l2.95-5.199c-0.148-0.054-2.182-0.28-4.7-0.02c-2.614,0.269-5.269,0.789-6.101,1.208
			c-0.834,0.419-1.971,1.418-2.438,1.988c-2.297,2.81-6.249,8.64-6.249,8.64c-0.293,0.353-0.475,0.784-0.522,1.239l-1.521,14.46
			c0,0-0.123,2.364-0.741,3.924c-0.618,1.558-2.216,3.664-2.216,3.664l-4.115,5.168l13.333,7.567l3.582-9.5
			c0,0,0.062-0.186,0.176-0.498c0.545-1.522,7.373-7.958,8.638-10.186c0.956-1.685,2.03-4.031,3.172-6.353
			c0.679-1.384,1.38-2.759,2.094-3.981c1.224-2.099,1.75-3.844,2.255-5.068c0.838-1.478-0.496-2.919-1.715-3.312
			s-2.963,0.676-4.337,2.628c-1.373,1.951-1.479,3.964-3.762,6.391c-0.05,0.053-0.101,0.103-0.152,0.153
			c-1.034,0.971-2.842,1.539-3.11,1.559c-2.06,0.157-4.377-5.324-4.188-6.948c1.496-1.815,3.596-4.967,4.596-6.54
			C109.734,17.591,112.766,17.013,113.294,16.843z"/>
		<g>
			<path fill="#E7E7E7" d="M99.084,62.91c0.93,0.527,2.117,0.199,2.646-0.73l4.61-8.13c0.528-0.931,0.201-2.118-0.729-2.646
				L91.83,43.582c-0.931-0.528-2.118-0.201-2.646,0.729l-4.613,8.13c-0.528,0.931-0.201,2.117,0.729,2.646L99.084,62.91z"/>
			<path fill="#214797" d="M99.275,62.572c0.742,0.422,1.694,0.158,2.116-0.586l4.614-8.129c0.421-0.742,0.159-1.695-0.584-2.116
				L91.64,43.919c-0.743-0.422-1.695-0.159-2.117,0.584l-4.614,8.13c-0.421,0.742-0.158,1.694,0.584,2.116L99.275,62.572z"/>
		</g>
		<circle fill="#E7E7E7" cx="100.695" cy="56.218" r="1.839"/>
		<circle fill="#214797" cx="100.695" cy="56.218" r="1.454"/>
	</g>
	<path fill="#234598" stroke="#FFFFFF" stroke-width="0.7" stroke-miterlimit="10" d="M160.139,78.299
		c0,1.867-1.979,3.381-4.416,3.381H43.325c-2.438,0-4.415-1.514-4.415-3.381V57.65c0-1.867,1.977-3.381,4.415-3.381h112.397
		c2.438,0,4.414,1.514,4.414,3.381v20.646L160.139,78.299L160.139,78.299z"/>
	<g>
		<g>
			<g enable-background="new    ">
				<path fill="none" stroke="#FFFFFF" stroke-miterlimit="10" d="M45.352,59.776c0.924-0.193,2.384-0.338,3.867-0.338
					c2.116,0,3.478,0.364,4.5,1.19c0.851,0.633,1.361,1.606,1.361,2.893c0,1.582-1.045,2.968-2.771,3.599v0.05
					c1.556,0.389,3.38,1.677,3.38,4.109c0,1.41-0.56,2.479-1.386,3.282c-1.144,1.045-2.992,1.532-5.667,1.532
					c-1.458,0-2.577-0.099-3.282-0.194V59.776z M47.468,66.487h1.921c2.237,0,3.55-1.166,3.55-2.746
					c0-1.922-1.458-2.676-3.599-2.676c-0.973,0-1.532,0.073-1.873,0.146V66.487z M47.468,74.343
					c0.413,0.071,1.021,0.099,1.775,0.099c2.189,0,4.207-0.803,4.207-3.186c0-2.237-1.921-3.163-4.231-3.163h-1.751V74.343z"/>
				<path fill="none" stroke="#FFFFFF" stroke-miterlimit="10" d="M58.532,59.558h2.115v14.614h7.003v1.776h-9.119L58.532,59.558
					L58.532,59.558z"/>
				<path fill="none" stroke="#FFFFFF" stroke-miterlimit="10" d="M71.25,59.558v9.703c0,3.672,1.63,5.228,3.818,5.228
					c2.431,0,3.988-1.604,3.988-5.228v-9.703h2.14v9.558c0,5.033-2.651,7.1-6.202,7.1c-3.356,0-5.885-1.922-5.885-7.002v-9.655
					H71.25z"/>
				<path fill="none" stroke="#FFFFFF" stroke-miterlimit="10" d="M93.354,68.264h-6.371v5.909h7.1v1.775h-9.217v-16.39h8.852v1.775
					h-6.736v5.179h6.371L93.354,68.264L93.354,68.264z"/>
			</g>
			<g enable-background="new    ">
				<path fill="#FFFFFF" d="M97.994,59.348c0.979-0.205,2.525-0.358,4.098-0.358c2.242,0,3.686,0.387,4.768,1.263
					c0.902,0.67,1.443,1.701,1.443,3.064c0,1.678-1.107,3.146-2.938,3.814v0.053c1.648,0.412,3.582,1.777,3.582,4.354
					c0,1.495-0.594,2.629-1.469,3.479c-1.213,1.106-3.17,1.623-6.006,1.623c-1.548,0-2.731-0.104-3.479-0.207L97.994,59.348
					L97.994,59.348z M100.236,66.461h2.036c2.371,0,3.766-1.236,3.766-2.912c0-2.035-1.547-2.835-3.812-2.835
					c-1.031,0-1.625,0.077-1.987,0.154L100.236,66.461L100.236,66.461z M100.236,74.785c0.438,0.076,1.083,0.104,1.881,0.104
					c2.32,0,4.459-0.851,4.459-3.375c0-2.371-2.036-3.352-4.484-3.352h-1.856V74.785z"/>
				<path fill="#FFFFFF" d="M114.771,71.021l-1.807,5.465h-2.318l5.9-17.37h2.706l5.929,17.37h-2.396l-1.855-5.465H114.771z
					 M120.467,69.271l-1.701-5c-0.387-1.135-0.645-2.166-0.9-3.17h-0.053c-0.258,1.028-0.541,2.086-0.877,3.144l-1.701,5.026
					H120.467z"/>
				<path fill="#FFFFFF" d="M127.734,76.486v-17.37h2.447l5.565,8.788c1.288,2.035,2.294,3.865,3.118,5.644l0.052-0.024
					c-0.206-2.318-0.257-4.434-0.257-7.14v-7.268h2.111v17.37h-2.269l-5.515-8.814c-1.213-1.934-2.371-3.917-3.248-5.798
					l-0.077,0.024c0.129,2.189,0.181,4.277,0.181,7.166v7.422H127.734z"/>
				<path fill="#FFFFFF" d="M144.691,59.116h2.242v8.376h0.075c0.466-0.67,0.929-1.289,1.366-1.855l5.311-6.521h2.781l-6.287,7.37
					l6.777,10h-2.652l-5.725-8.53l-1.646,1.907v6.623h-2.242V59.116z"/>
			</g>
		</g>
	</g>
</g>
</svg>
